<svg xmlns="http://www.w3.org/2000/svg" viewBox="0 0 130.82 142.36"><defs><style>.cls-1{fill:none;stroke:#fff;stroke-miterlimit:10;stroke-width:7.23px;}.cls-2{fill:#fff;}</style></defs><title>handicap</title><g id="Calque_2" data-name="Calque 2"><g id="Calque_1-2" data-name="Calque 1"><polyline class="cls-1" points="41.96 21.17 49.26 79.32 87.84 79.32 111.48 120.23 129.9 115.37"/><line class="cls-1" x1="57.95" y1="50.71" x2="96.88" y2="50.71"/><path class="cls-2" d="M28.56,51.17C4.3,61.88-6.8,90.87,4.34,115,15,138.16,43.23,148.63,66.52,138.49a48.32,48.32,0,0,0,26.9-31c1.25-4.3-5.45-6.14-6.7-1.85-8.2,28.15-43.72,39.6-66.09,19.77A41,41,0,0,1,7.29,88.53C9.57,74.34,19.07,62.92,32.07,57.18c4.08-1.8.55-7.79-3.51-6Z"/><circle class="cls-2" cx="46.7" cy="12.13" r="12.13"/></g></g></svg>