<svg xmlns="http://www.w3.org/2000/svg" viewBox="0 0 5560.37 1880.37"><defs><style>.cls-1{fill:none;stroke:#282525;stroke-miterlimit:10;stroke-width:5.4px;}</style></defs><title>line2</title><g id="Calque_2" data-name="Calque 2"><g id="Calque_1-2" data-name="Calque 1"><path class="cls-1" d="M5558.88,139s-401.22-266.39-899.47-54.27c-337.35,143.63-554.85,429.73-660.14,599.53-98.58,159-252.44,277.25-433.19,325.45-212.74,56.73-492.7,37-761.56-268.86,0,0-277.35-399.59,117.85-601.85s410,572.08-413.85,379.77S1453.81,468.18,1359.09,647.1c-22.2,41.93-33.3,89.87-37.46,138.18-16,185.66,80.22,362.51,240.41,457.7,107.3,63.76,305.35,114,366.53-18.14,107.07-231.28-441.22-329.8-816.14,91.35,0,0-389.31,443.25-526.21,505-139.77,63.07-504.83,108.53-583.76-64.13"/></g></g></svg>