<svg xmlns="http://www.w3.org/2000/svg" viewBox="0 0 131.35 139.48"><defs><style>.cls-1{fill:#fff;stroke:#fff;stroke-miterlimit:10;stroke-width:2.78px;}</style></defs><title>mains</title><g id="Calque_2" data-name="Calque 2"><g id="Calque_1-2" data-name="Calque 1"><path class="cls-1" d="M1.39,82.94a17,17,0,0,0,9.27-10.2c2.78-7.88-2.78-15.06,1.39-26s0-25.49,0-25.49-1.16-3,1.85-3,9.27,8.11,9,17.84,2.55,13.9,8.34,9l6-15.76L49.82,2.06s8.11-3,6.26,3.71S44.73,38.21,44.73,38.21s1.39,7.42,5.79,1.85S73,4.15,73,4.15s5.79-3,5.56,3.71L60.48,41.23s-.46,6.49,4.4,4.4L86.44,17.36s6.72-2.09,4.4,3.71L69.52,51.89s-1.39,2.78,1.16,2.55S92.93,36.36,92.93,36.36s6.49-.23,4.17,4.87S67.87,74.52,63.7,77.77s-3,10.89,6.26,6.72,36.88-15.92,36.88-15.92,14.37-3,5.1,6.49l-32,15.81s-3,3.88.46,4.35,38.7-5.33,38.7-5.33,10.89-1.34,5.79,5.36l-42.18,9.94s-6.26,5.79,2.55,7.18,41,0,41,0,8.31,1.85,0,7.65L78.1,123.26s-8.11,2.55-.46,5.33l29.2,1.16s7,1.16,1.85,5.33c0,0-72.3,8.81-92.93-3.71,0,0-9.73-5.1-14.37-3.48Z"/></g></g></svg>