<svg xmlns="http://www.w3.org/2000/svg" viewBox="0 0 159.96 159.96"><defs><style>.cls-1{fill:#ea6d49;}.cls-2{fill:#563c3a;}.cls-3{fill:#e7aa7a;}</style></defs><title>Fichier 2lg</title><g id="Calque_2" data-name="Calque 2"><g id="Calque_1-2" data-name="Calque 1"><path class="cls-1" d="M2.28,13.25,51.23,62.2l77.6,77.6,17.88,17.88c7.06,7.06,18-3.9,11-11L108.73,97.76l-77.6-77.6L13.25,2.28c-7.06-7.06-18,3.9-11,11Z"/><path class="cls-2" d="M146.71,2.28,83.5,65.49l-9,9c-7.06,7.06,3.9,18,11,11l63.21-63.21,9-9c7.06-7.06-3.9-18-11-11Z"/><path class="cls-3" d="M74.5,74.5,11.29,137.71l-9,9c-7.06,7.06,3.9,18,11,11L76.45,94.47l9-9c7.06-7.06-3.9-18-11-11Z"/></g></g></svg>