<svg xmlns="http://www.w3.org/2000/svg" viewBox="0 0 179.4 180.63"><defs><style>.cls-1{fill:#fff;}.cls-2{fill:none;stroke:#fff;stroke-miterlimit:10;stroke-width:6.67px;}</style></defs><title>oeuil</title><g id="Calque_2" data-name="Calque 2"><g id="Calque_1-2" data-name="Calque 1"><path class="cls-1" d="M68.1,4.29,85.29,62.94l27.44,93.6,6.35,21.65c1.26,4.28,8,2.46,6.7-1.85l-17.19-58.65L81.15,24.09,74.81,2.44c-1.26-4.28-8-2.46-6.7,1.85Z"/><path class="cls-2" d="M84.87,46.68c1.61-.1,3.2-.27,4.83-.27"/><path class="cls-2" d="M94.53,134.59c-.78,0-1.56.11-2.34.13"/><path class="cls-2" d="M84.87,134.59a82.86,82.86,0,0,1-12.46-1.65"/><path class="cls-2" d="M89.7,46.4c1.63,0,3.22.17,4.83.27"/><path class="cls-2" d="M89.7,134.87c.84,0,1.65-.11,2.48-.14"/><path class="cls-2" d="M17.74,77.72a163.61,163.61,0,0,1,15.73-12"/><path class="cls-2" d="M94.53,134.59c44.84-2.85,80.45-44,80.45-44s-35.61-41.1-80.45-44"/><path class="cls-2" d="M67.26,49.71a84.88,84.88,0,0,1,17.62-3"/><path class="cls-2" d="M89.7,134.87c-1.63,0-3.22-.17-4.83-.27"/><path class="cls-2" d="M33.47,65.74a134.79,134.79,0,0,1,16.47-9.48"/><path class="cls-2" d="M67.26,49.71a106.35,106.35,0,0,0-17.32,6.56"/><path class="cls-2" d="M94.53,46.68a44.22,44.22,0,0,1,0,87.92"/><path class="cls-2" d="M68,52.13a43.91,43.91,0,0,1,16.91-5.46"/><path class="cls-2" d="M89.7,134.87c.84,0,1.66-.08,2.48-.13"/><path class="cls-2" d="M94.53,46.68a44.59,44.59,0,0,0-4.83-.27"/><path class="cls-2" d="M84.87,134.59a44.6,44.6,0,0,0,4.83.27"/><path class="cls-2" d="M68,52.13A44.44,44.44,0,0,0,52.85,66.19"/><path class="cls-2" d="M94.53,134.59c-.77.08-1.56.11-2.34.15"/><path class="cls-2" d="M89.7,46.4a44.6,44.6,0,0,0-4.83.27"/><path class="cls-2" d="M71.88,131.1a43.92,43.92,0,0,0,13,3.49"/><path class="cls-2" d="M71.88,131.1a44.2,44.2,0,0,1-19-64.91"/><line class="cls-2" x1="67.26" y1="49.71" x2="67.97" y2="52.13"/><line class="cls-2" x1="92.18" y1="134.73" x2="92.19" y2="134.74"/><line class="cls-2" x1="67.97" y1="52.13" x2="92.18" y2="134.73"/><line class="cls-2" x1="71.88" y1="131.1" x2="72.42" y2="132.94"/><line class="cls-2" x1="49.94" y1="56.26" x2="52.85" y2="66.19"/><line class="cls-2" x1="71.88" y1="131.1" x2="52.85" y2="66.19"/><path class="cls-2" d="M33.47,65.74,51,125.48a101.69,101.69,0,0,0,21.43,7.46"/><path class="cls-2" d="M27.62,111.42l-9.88-33.7A143.89,143.89,0,0,0,4.42,90.63,157.49,157.49,0,0,0,27.62,111.42Z"/><circle class="cls-1" cx="89.7" cy="90.64" r="31.85"/></g></g></svg>