<svg xmlns="http://www.w3.org/2000/svg" viewBox="0 0 150.4 171.71"><defs><style>.cls-1{fill:#fff;}</style></defs><title>oreille</title><g id="Calque_2" data-name="Calque 2"><g id="Calque_1-2" data-name="Calque 1"><path class="cls-1" d="M100.24,86.59c7.87-17.8-8.3-36.78-27.18-30-4.18,1.5-2.38,8.22,1.85,6.7,12.46-4.48,25,6.92,19.33,19.77-1.79,4.05,4.2,7.6,6,3.51Z"/><path class="cls-1" d="M86.52,38.75A38,38,0,0,0,49.29,84.41h.05a2.78,2.78,0,0,0,5.33-1.1h.06a32.44,32.44,0,1,1,56.88,14,102.46,102.46,0,0,0-20.81,37.5c-3.55,11.91-10.24,20.09-17.48,21.35-6.32,1.08-13.19-3-19.79-12l0,0a2.74,2.74,0,0,0-3.21-.52,2.69,2.69,0,0,0-1.41,3.53,2,2,0,0,0,.2.25l0,0C57.53,159,65.44,161.91,71.3,161.91a17.07,17.07,0,0,0,3-.26c9.47-1.65,17.64-11.08,21.86-25.24A98.78,98.78,0,0,1,115.79,101,38,38,0,0,0,86.52,38.75Z"/><path class="cls-1" d="M110.58,50.61,149.5,6c2.93-3.36-2-8.29-4.92-4.92L105.66,45.7c-2.93,3.36,2,8.29,4.92,4.92Z"/><path class="cls-1" d="M5.82,170.58l63-72.12,8.87-10.15c2.93-3.36-2-8.29-4.92-4.92l-63,72.12L.9,165.67C-2,169,2.87,174,5.82,170.58Z"/></g></g></svg>