<svg xmlns="http://www.w3.org/2000/svg" viewBox="0 0 144.51 144.48"><defs><style>.cls-1{fill:#ea6d49;}.cls-2{fill:#e7aa7a;}.cls-3{fill:#563c3a;}</style></defs><title>pourcentage3</title><g id="Calque_2" data-name="Calque 2"><g id="Calque_1-2" data-name="Calque 1"><path class="cls-1" d="M59,35.74C58.67,48.45,48.63,59,35.69,59A23.47,23.47,0,0,1,12.42,35.74,23.46,23.46,0,0,1,35.69,12.47,23.52,23.52,0,0,1,59,35.74c.19,8,12.69,8.06,12.5,0A36.36,36.36,0,0,0,47.93,2.14,36,36,0,0,0,8.24,12.86,36.13,36.13,0,0,0,5,54.17,36.25,36.25,0,0,0,42.81,70.79c16.75-3.19,28.27-18.37,28.66-35C71.65,27.7,59.15,27.7,59,35.74Z"/><path class="cls-2" d="M113.84,21.79,33.1,102.54,21.74,113.89c-5.7,5.7,3.14,14.54,8.84,8.84L111.33,42l11.35-11.35c5.7-5.7-3.14-14.54-8.84-8.84Z"/><path class="cls-3" d="M132,108.78c-.29,12.7-10.34,23.27-23.27,23.27A23.27,23.27,0,1,1,132,108.78c.19,8,12.69,8.06,12.5,0A36.36,36.36,0,0,0,121,75.18a35.76,35.76,0,1,0-5.12,68.65c16.75-3.19,28.27-18.37,28.66-35C144.69,100.73,132.19,100.74,132,108.78Z"/></g></g></svg>