<svg xmlns="http://www.w3.org/2000/svg" viewBox="0 0 156.69 156.69"><defs><style>.cls-1{fill:#e7aa7a;}.cls-2{fill:#563c3a;}.cls-3{fill:#ea6d49;}</style></defs><title>pourcentage1</title><g id="Calque_2" data-name="Calque 2"><g id="Calque_1-2" data-name="Calque 1"><path class="cls-1" d="M64.41,38.49c-.3,14.19-11.58,26-26,26a26.21,26.21,0,0,1-26-26,26.21,26.21,0,0,1,26-26c14.42,0,25.7,11.81,26,26,.17,8,12.67,8.06,12.5,0A39.13,39.13,0,0,0,51.4,2.26C36.33-3.33,18.65,1.75,8.6,14.19a38.85,38.85,0,0,0-3.2,44.1,39,39,0,0,0,40.18,18C63.8,73,76.53,56.66,76.91,38.49,77.08,30.44,64.58,30.44,64.41,38.49Z"/><path class="cls-2" d="M124.19,23.66,36,111.83,23.58,124.26c-5.7,5.7,3.14,14.54,8.84,8.84L120.6,44.92,133,32.49c5.7-5.7-3.14-14.54-8.84-8.84Z"/><path class="cls-3" d="M144.19,118.26c-.3,14.19-11.58,26-26,26a26,26,0,1,1,0-52c14.42,0,25.7,11.81,26,26,.17,8,12.67,8.06,12.5,0A39.13,39.13,0,0,0,131.17,82C116.11,76.45,98.43,81.53,88.38,94a38.45,38.45,0,0,0,37,62.11c18.23-3.28,31-19.64,31.34-37.81C156.86,110.22,144.36,110.22,144.19,118.26Z"/></g></g></svg>