<svg xmlns="http://www.w3.org/2000/svg" viewBox="0 0 155.68 165.07"><defs><style>.cls-1{fill:#fff;}</style></defs><title>visages</title><g id="Calque_2" data-name="Calque 2"><g id="Calque_1-2" data-name="Calque 1"><ellipse class="cls-1" cx="48.44" cy="57.11" rx="10.3" ry="6.26"/><ellipse class="cls-1" cx="105.68" cy="57.11" rx="10.3" ry="6.26"/><path class="cls-1" d="M152.49,49c-2.76-4.67-7.58-6.06-11.11-6.4C143.24,7.42,133.19,1.17,131.09.26a3.11,3.11,0,0,0-2.43,0C124.4,3.32,128,6.79,128,6.79s8.4,5.56,5.94,39.17l-.3,4.43,4.4-.59c.06,0,6.07-.76,8.24,2.89,2.48,4.19,2.82,14.12,1.11,32.19-1.31,3.5-3.49,6.27-4.3,6.27h-.17a7.5,7.5,0,0,0-7.41,7l-1.71,22a14.35,14.35,0,0,1-2.08,6.46c-7.53,12.14-27.49,38.92-49.82,25.92-5.76.84-3.64,6.25-3.64,6.25a31,31,0,0,0,15.81,4.51c21.44,0,38.35-24.07,43.8-32.87a21.73,21.73,0,0,0,3.14-9.72l1.91-22.28h.16c6.93,0,10.61-9.58,11.28-11.51l.18-.84C156.53,65.24,156,54.87,152.49,49Z"/><path class="cls-1" d="M92.31,92.73c-2-2.1-6.54-7-6.54-22.42,0-35.52-18-60.84-18.76-61.91-6.09-1.86-5.87,4.24-5.87,4.24.17.24,17.39,24.46,17.39,57.67,0,14.63,3.82,21.63,6.65,25.23l-.75.27c-2,.73-4.81,1.71-8.45,3.11l-2.35.9.11,9.74c-5.25.55-16.09,1.18-22.7-2.41a5,5,0,0,0-6.8,6.72c3,5.67,12,13.63,23.38,15.41v23.24a5.23,5.23,0,0,1-5.13,5.3c-14,.12-40.26-2.49-56.75-23.69-6.64-2.37-5.7,4.44-5.7,4.44,17.72,22.78,45,26.48,60.79,26.48l1.79,0a12.55,12.55,0,0,0,12.24-12.52v-30l-3.48-.14a27.14,27.14,0,0,1-15.58-6.1c10.27,2,21.62.08,22.22,0l3-.53-.12-11c2.43-.91,4.38-1.6,5.92-2.15,4.79-1.7,6.77-2.4,7.39-4.93C94.8,95.4,93.3,93.8,92.31,92.73Z"/><rect class="cls-1" x="85.35" y="117.31" width="20.05" height="5.74" rx="2.87" ry="2.87"/></g></g></svg>